HIERARCHY
ROOT Hips
{
 OFFSET 0.000000 0.000000 0.000000
 CHANNELS 6 Xposition Yposition Zposition Yrotation Xrotation Zrotation
 JOINT Chest
 {
  OFFSET 0.000000 9.585900 0.002600
  CHANNELS 3 Yrotation Xrotation Zrotation
  JOINT Chest2
  {
   OFFSET 0.000000 9.601200 -0.005300
   CHANNELS 3 Yrotation Xrotation Zrotation
   JOINT Chest3
   {
    OFFSET 0.000000 9.561800 0.000000
    CHANNELS 3 Yrotation Xrotation Zrotation
    JOINT Chest4
    {
     OFFSET 0.000000 9.552100 0.000000
     CHANNELS 3 Yrotation Xrotation Zrotation
     JOINT Neck
     {
      OFFSET 0.000000 14.453000 0.000000
      CHANNELS 3 Yrotation Xrotation Zrotation
      JOINT Head
      {
       OFFSET 0.000000 8.936500 -0.011300
       CHANNELS 3 Yrotation Xrotation Zrotation
       End Site
       {
        OFFSET 0.000000 17.073600 -0.006000
       }
      }
     }
     JOINT RightCollar
     {
      OFFSET -2.921100 9.558500 0.000000
      CHANNELS 3 Yrotation Xrotation Zrotation
      JOINT RightShoulder
      {
       OFFSET -13.519700 0.000000 0.000000
       CHANNELS 3 Yrotation Xrotation Zrotation
       JOINT RightElbow
       {
        OFFSET 0.000000 -29.696600 0.000000
        CHANNELS 3 Yrotation Xrotation Zrotation
        JOINT RightWrist
        {
         OFFSET 0.000000 -24.004700 0.000000
         CHANNELS 3 Yrotation Xrotation Zrotation
         End Site
         {
          OFFSET 0.000000 -17.728500 0.000000
         }
        }
       }
      }
     }
     JOINT LeftCollar
     {
      OFFSET 2.921100 9.558500 0.000000
      CHANNELS 3 Yrotation Xrotation Zrotation
      JOINT LeftShoulder
      {
       OFFSET 13.519700 0.000000 0.000000
       CHANNELS 3 Yrotation Xrotation Zrotation
       JOINT LeftElbow
       {
        OFFSET 0.000000 -29.696600 0.000000
        CHANNELS 3 Yrotation Xrotation Zrotation
        JOINT LeftWrist
        {
         OFFSET 0.000000 -24.004700 0.000000
         CHANNELS 3 Yrotation Xrotation Zrotation
         End Site
         {
          OFFSET 0.000000 -17.728500 0.000000
         }
        }
       }
      }
     }
    }
   }
  }
 }
 JOINT RightHip
 {
  OFFSET -7.771700 -0.012900 -0.001300
  CHANNELS 3 Yrotation Xrotation Zrotation
  JOINT RightKnee
  {
   OFFSET 0.000000 -40.869800 0.001200
   CHANNELS 3 Yrotation Xrotation Zrotation
   JOINT RightAnkle
   {
    OFFSET 0.000000 -39.717900 0.002100
    CHANNELS 3 Yrotation Xrotation Zrotation
    JOINT RightToe
    {
     OFFSET 0.000000 -4.965400 11.033500
     CHANNELS 3 Yrotation Xrotation Zrotation
     End Site
     {
      OFFSET 0.000000 -1.423100 5.872300
     }
    }
   }
  }
 }
 JOINT LeftHip
 {
  OFFSET 7.771700 -0.012900 -0.001300
  CHANNELS 3 Yrotation Xrotation Zrotation
  JOINT LeftKnee
  {
   OFFSET 0.000000 -40.869800 0.001200
   CHANNELS 3 Yrotation Xrotation Zrotation
   JOINT LeftAnkle
   {
    OFFSET 0.000000 -39.717900 0.002100
    CHANNELS 3 Yrotation Xrotation Zrotation
    JOINT LeftToe
    {
     OFFSET 0.000000 -4.965400 11.033500
     CHANNELS 3 Yrotation Xrotation Zrotation
     End Site
     {
      OFFSET 0.000000 -1.423100 5.872300
     }
    }
   }
  }
 }
}
MOTION
Frames: 5
Frame Time: 0.008333
-97.325143 57.417109 -1.034777 160.766932 -7.708288 0.022279 2.464935 7.437586 0.736123 0.103875 0.356826 -0.001460 0.188692 0.611723 -0.005956 2.147722 7.096597 0.070939 1.096358 18.053299 -1.204625 2.402181 -2.226931 -2.572920 -0.664237 6.142809 -0.168401 -5.972261 -8.012825 -8.923050 -97.946799 -80.881573 121.276305 -5.378707 4.561431 -32.829800 -2.457768 6.833186 -1.436426 18.169965 -4.023059 1.236805 118.385895 -78.170964 -138.840167 0.454820 5.456900 17.285734 -22.590825 -63.511170 13.411034 -27.546345 73.893316 -26.283558 -0.516994 -7.610770 -5.580410 -0.241847 0.644019 -0.107752 10.141637 -67.538860 9.700974 41.619280 63.427472 32.725953 -18.492396 -10.028693 6.195940 -0.208555 -0.938766 -0.092557
-97.328830 57.418201 -1.034993 160.770590 -7.701093 0.029413 2.456348 7.435594 0.728984 0.107323 0.354452 -0.002150 0.185014 0.614018 -0.005040 2.148686 7.094175 0.070730 1.093424 18.054631 -1.205668 2.406598 -2.228378 -2.579495 -0.660835 6.138933 -0.170971 -5.968375 -8.017489 -8.929799 -97.930514 -80.886230 121.260853 -5.388168 4.561038 -32.834275 -2.455789 6.830704 -1.438141 18.157128 -4.028733 1.238962 118.369676 -78.175477 -138.814359 0.450990 5.457779 17.289448 -22.581121 -63.518802 13.396399 -27.541304 73.890235 -26.278056 -0.523990 -7.618392 -5.574394 -0.241980 0.650344 -0.111723 10.224531 -67.542090 9.622833 41.581722 63.416247 32.704750 -18.525273 -9.989788 6.197619 -0.186468 -0.955867 -0.087234
-97.331040 57.419195 -1.033929 160.783141 -7.690359 0.025310 2.446191 7.428141 0.732231 0.104920 0.351061 -0.003314 0.183205 0.615327 -0.005357 2.150259 7.090912 0.072567 1.091501 18.055626 -1.209345 2.408587 -2.226451 -2.580387 -0.663987 6.137745 -0.181743 -5.965321 -8.014822 -8.922384 -97.928360 -80.895559 121.258059 -5.394006 4.557517 -32.834656 -2.450053 6.830087 -1.440481 18.142577 -4.030365 1.244476 118.342977 -78.182989 -138.786841 0.453049 5.458311 17.296610 -22.600200 -63.524391 13.408341 -27.554120 73.883823 -26.291027 -0.527627 -7.624446 -5.573678 -0.237184 0.654535 -0.108972 10.247031 -67.553086 9.590759 41.568219 63.400972 32.693818 -18.520497 -9.936698 6.204740 -0.192976 -0.985327 -0.089250
-97.333304 57.420076 -1.031916 160.804561 -7.674452 0.018813 2.418573 7.411259 0.731497 0.111193 0.351553 -0.000677 0.180624 0.615019 -0.006428 2.145801 7.086142 0.069956 1.093760 18.058150 -1.209446 2.414356 -2.223570 -2.579504 -0.654332 6.138878 -0.189011 -5.966259 -8.010572 -8.920459 -97.933238 -80.895644 121.255831 -5.385824 4.559416 -32.829912 -2.443671 6.828628 -1.440145 18.136306 -4.029472 1.251099 118.287704 -78.191401 -138.729514 0.449881 5.454372 17.299753 -22.639330 -63.536008 13.430867 -27.574279 73.880626 -26.312016 -0.528100 -7.627102 -5.574357 -0.231879 0.653513 -0.106007 10.258557 -67.568058 9.560047 41.549533 63.384712 32.675624 -18.513125 -9.901988 6.213033 -0.190329 -0.947164 -0.089273
-97.336649 57.421146 -1.031764 160.807324 -7.666717 0.024407 2.409997 7.404216 0.722417 0.106110 0.351354 -0.002721 0.185578 0.614460 -0.004408 2.142100 7.080930 0.066319 1.100610 18.062298 -1.206558 2.415790 -2.220285 -2.580056 -0.643591 6.138733 -0.193550 -5.965883 -8.006668 -8.919931 -97.937668 -80.905109 121.255893 -5.384475 4.557725 -32.844086 -2.434560 6.833097 -1.435448 18.130926 -4.033526 1.251606 118.241384 -78.196556 -138.681556 0.446629 5.455101 17.281254 -22.636612 -63.545158 13.425173 -27.581471 73.879182 -26.318947 -0.533017 -7.628238 -5.574702 -0.226851 0.652742 -0.104315 10.297497 -67.574622 9.518731 41.533084 63.380594 32.664495 -18.520594 -9.872098 6.211771 -0.181610 -0.942861 -0.084224
